<svg width="36" height="24" viewBox="0 0 36 24" fill="none" xmlns="http://www.w3.org/2000/svg">
<path fill-rule="evenodd" clip-rule="evenodd" d="M13.8729 12.0002C13.8729 13.7165 14.2732 15.409 15.0418 16.9434C15.8104 18.478 16.9261 19.8121 18.3004 20.84C16.6569 22.0783 14.7009 22.8341 12.6519 23.0224C10.6029 23.2106 8.54233 22.824 6.70052 21.9059C4.85871 20.9877 3.31 19.5744 2.22705 17.8247C1.14411 16.0749 0.570312 14.0579 0.570312 12.0002C0.570312 9.94252 1.14411 7.92557 2.22705 6.17586C3.31 4.42605 4.85871 3.01273 6.70052 2.09457C8.54233 1.1765 10.6029 0.78981 12.6519 0.978063C14.7009 1.16641 16.6569 1.92208 18.3004 3.16043C16.9261 4.1883 15.8104 5.52255 15.0418 7.057C14.2732 8.59146 13.8729 10.2841 13.8729 12.0002Z" fill="black"/>
<path opacity="0.3" fill-rule="evenodd" clip-rule="evenodd" d="M24.9419 23.0688C22.5449 23.069 20.2125 22.2864 18.3008 20.8401C19.6751 19.8123 20.7908 18.4781 21.5594 16.9436C22.328 15.4091 22.7282 13.7165 22.7282 12.0003C22.7282 10.2841 22.328 8.59152 21.5594 7.05697C20.7908 5.52252 19.6751 4.18836 18.3008 3.16049C19.7025 2.10721 21.3353 1.40228 23.0629 1.10378C24.7905 0.805371 26.565 0.921902 28.2394 1.44389C29.913 1.96589 31.4396 2.87829 32.6917 4.10593C33.9437 5.33356 34.8859 6.84127 35.4411 8.50474C35.9954 10.1682 36.1468 11.9397 35.8829 13.6732C35.6182 15.4067 34.9461 17.0526 33.9207 18.475C32.8953 19.8976 31.5459 21.0559 29.9847 21.8546C28.4236 22.6534 26.6952 23.0695 24.9419 23.0688Z" fill="black"/>
<path opacity="0.65" fill-rule="evenodd" clip-rule="evenodd" d="M13.8711 12.0004C13.8711 10.2843 14.2713 8.59167 15.0399 7.05722C15.8085 5.52277 16.9242 4.1886 18.2985 3.16064C19.6728 4.18851 20.7885 5.52267 21.5571 7.05713C22.3257 8.59167 22.7259 10.2843 22.7259 12.0004C22.7259 13.7167 22.3257 15.4093 21.5571 16.9437C20.7885 18.4783 19.6728 19.8124 18.2985 20.8402C16.9242 19.8123 15.8085 18.4782 15.0399 16.9437C14.2713 15.4092 13.8711 13.7167 13.8711 12.0004Z" fill="black"/>
</svg>
