<svg width="48" height="16" viewBox="0 0 48 16" fill="none" xmlns="http://www.w3.org/2000/svg">
<path fill-rule="evenodd" clip-rule="evenodd" d="M43.9461 15.5681C43.9461 15.5681 43.5999 13.4553 43.4839 12.9258H38.4783C38.3401 13.3402 37.6486 15.5681 37.6486 15.5681H33.5647L39.3558 1.75894C39.4996 1.34852 39.779 0.999369 40.1483 0.769144C40.5166 0.538918 40.9532 0.441431 41.3853 0.4927H44.4075L47.5677 15.5681H43.9461ZM41.9387 5.8543L41.6616 4.56504C41.4774 5.1406 41.1303 6.03848 41.1542 6.01546C41.1542 6.01546 39.9083 9.35196 39.609 10.2259H42.8384C42.679 9.46442 41.9387 5.8543 41.9387 5.8543ZM33.5417 3.96822C32.6298 3.55629 31.6355 3.35936 30.6355 3.39265C29.0895 3.39265 28.397 4.0364 28.374 4.68103C28.374 5.39473 29.2055 5.8543 30.5877 6.54055C32.8262 7.5987 33.864 8.9101 33.841 10.635C33.818 13.7413 31.165 15.7655 27.0582 15.7655C25.5744 15.7705 24.1028 15.4977 22.7193 14.9615L23.2506 11.579L23.7819 11.8322C24.9146 12.389 26.1647 12.665 27.4265 12.6371C28.5573 12.6371 29.7562 12.1767 29.7802 11.1645C29.7802 10.4978 29.2728 10.0134 27.7497 9.27847C26.2736 8.56477 24.3123 7.36848 24.3353 5.20524C24.3583 2.28315 27.0573 0.235024 30.91 0.235024C32.1067 0.228206 33.2947 0.43824 34.4165 0.85486L33.8853 4.12318L33.5417 3.96822ZM16.3792 15.5681L18.8241 0.4927H22.7202L20.2763 15.5681H16.3792ZM6.99311 15.5681L3.72656 3.2926C4.25706 3.5601 4.75957 3.87985 5.22657 4.24715C6.64574 5.40669 7.85956 6.7969 8.81721 8.35933L8.88185 8.68431L9.29714 10.7555L13.126 0.4927H17.2559L11.1195 15.5681H6.994H6.99311Z" fill="black"/>
<path opacity="0.35" fill-rule="evenodd" clip-rule="evenodd" d="M5.22436 4.24754C4.75762 3.87989 4.25502 3.56014 3.72435 3.29298L3.50209 2.45797C2.39913 1.82547 1.22303 1.33014 0 0.982764V0.516113H5.98941C6.34777 0.516999 6.69505 0.640431 6.97354 0.865964C7.25202 1.0915 7.44506 1.40549 7.52041 1.75578L8.81676 8.35618C7.85823 6.79481 6.64379 5.40593 5.22436 4.24754Z" fill="black"/>
</svg>
