<svg width="159" height="41" viewBox="0 0 159 41" fill="none" xmlns="http://www.w3.org/2000/svg">
<g clip-path="url(#clip0_230_19763)">
<path fill-rule="evenodd" clip-rule="evenodd" d="M20.4272 7.80908C23.8913 7.80908 27.0279 9.18795 29.2919 11.4181L24.6795 15.9075L20.8813 12.101L11.9712 20.1606L14.6958 20.1541L14.7444 27.0031L18.9319 27.0614V24.2551C18.9319 23.6369 19.5547 23.7696 20.878 23.7858H20.8878H20.8975C22.2209 23.7664 22.8436 23.6369 22.8436 24.2551V27.0614L26.95 27.0031L28.8864 29.0682C26.6613 31.0685 23.6935 32.292 20.4337 32.292C13.5281 32.292 7.92969 26.8122 7.92969 20.0505C7.92969 13.2889 13.5216 7.80908 20.4272 7.80908ZM14.6698 16.1632L16.8852 14.3376L16.9111 13.3504H14.6666V16.1632H14.6698Z" fill="#2B2C86"/>
<path fill-rule="evenodd" clip-rule="evenodd" d="M20.428 0.0507812C26.0881 0.0507812 31.2097 2.30357 34.9106 5.94494L32.1633 8.62175C29.1662 5.66981 25.0144 3.84428 20.428 3.84428C11.2844 3.84428 3.87283 11.1011 3.87283 20.0508C3.87283 29.0005 11.2844 36.2573 20.428 36.2573C24.7452 36.2573 28.6732 34.6389 31.6216 31.9912L34.2424 34.7846C30.6064 38.0537 25.7572 40.0508 20.4313 40.0508C9.14688 40.0508 0 31.0979 0 20.0508C0 9.00369 9.14688 0.0507812 20.428 0.0507812Z" fill="#E52B0E"/>
<path fill-rule="evenodd" clip-rule="evenodd" d="M42.3109 22.6824C40.5756 22.6824 39.0997 22.0869 37.8802 20.8925C36.6606 19.6981 36.0508 18.2351 36.0508 16.5002C36.0508 14.7653 36.6606 13.299 37.8802 12.0917C39.0997 10.8876 40.5756 10.2824 42.3109 10.2824C42.6385 10.2824 42.9434 10.2986 43.2256 10.3342C43.5078 10.3698 43.7867 10.4313 44.0689 10.5251L44.2959 10.1982L46.2486 11.3181L44.9284 13.8331C44.0721 13.0628 43.1996 12.6808 42.3076 12.6808C41.3216 12.6808 40.4912 13.0498 39.8101 13.7813C39.1289 14.5161 38.7916 15.4224 38.7916 16.5034C38.7916 17.5845 39.1322 18.4552 39.8101 19.19C40.4912 19.9247 41.3216 20.2905 42.3076 20.2905C43.3521 20.2905 44.1954 19.9247 44.8409 19.19L45.8788 21.6175C44.8474 22.3296 43.657 22.6857 42.3076 22.6857L42.3109 22.6824ZM48.9407 22.3555V13.0239H46.5145L47.3417 10.6319H52.0384L52.3368 10.0979H54.7111L53.6374 13.0239H51.5259V22.3555H48.9407ZM55.6582 22.3555H58.2433V18.808H59.7386C60.7928 18.808 61.6847 18.3905 62.4113 17.5522C63.1379 16.7138 63.5011 15.6975 63.5011 14.5031C63.5011 13.435 63.1216 12.5222 62.3594 11.7648C61.5972 11.0074 60.7052 10.6287 59.6867 10.6287H55.4117L54.5327 13.0207H55.6582V22.3523V22.3555ZM58.2433 13.0239H59.0347C59.5278 13.0239 59.9365 13.189 60.2673 13.5224C60.5949 13.8558 60.7603 14.2636 60.7603 14.7459C60.7603 15.2282 60.5917 15.6133 60.2511 15.9338C59.9105 16.2542 59.5018 16.4161 59.0185 16.4161H58.2433V13.0239ZM70.5559 22.6824C68.8206 22.6824 67.3448 22.0869 66.1252 20.8925C64.9056 19.6981 64.2958 18.2351 64.2958 16.5002C64.2958 14.7653 64.9056 13.3249 66.1252 12.1079C67.3448 10.8909 68.8206 10.2824 70.5559 10.2824C72.2912 10.2824 73.7671 10.8844 74.9866 12.0917C76.2062 13.299 76.816 14.7653 76.816 16.5002C76.816 18.2351 76.2062 19.669 74.9866 20.8731C73.7671 22.0772 72.2912 22.6824 70.5559 22.6824ZM70.5559 12.6776C69.5829 12.6776 68.7525 13.0466 68.0681 13.7878C67.3837 14.529 67.0399 15.4321 67.0399 16.5002C67.0399 17.5683 67.3805 18.452 68.0616 19.1867C68.7428 19.9215 69.5731 20.2872 70.5592 20.2872C71.5452 20.2872 72.3756 19.9215 73.0567 19.1867C73.7379 18.452 74.0784 17.5554 74.0784 16.5002C74.0784 15.445 73.7346 14.529 73.0502 13.7878C72.3658 13.0466 71.5355 12.6776 70.5624 12.6776H70.5559ZM84.4157 10.6287H87.0008V22.3555H84.4157V15.95L80.9678 22.3555H78.3827V13.0239H77.2571L78.1362 10.6319H80.9678V17.1929L84.4157 10.6319V10.6287ZM79.7385 8.61544L80.6888 7.65088C80.9354 7.93895 81.2305 8.15258 81.5776 8.29823C81.9246 8.44065 82.2782 8.51186 82.6415 8.51186C83.4264 8.51186 84.0719 8.22379 84.5746 7.65088L85.5931 8.65104L85.5218 8.7708C84.7141 9.63178 83.7508 10.0623 82.6382 10.0623C82.0641 10.0623 81.5289 9.94575 81.0392 9.70946C80.5461 9.47318 80.1115 9.11066 79.7385 8.61544ZM94.7595 22.6824C93.0242 22.6824 91.5483 22.0869 90.3288 20.8925C89.1092 19.6981 88.4994 18.2351 88.4994 16.5002C88.4994 14.7653 89.1092 13.3249 90.3288 12.1079C91.5483 10.8909 93.0242 10.2824 94.7595 10.2824C96.4948 10.2824 97.9706 10.8844 99.1902 12.0917C100.41 13.2958 101.02 14.7653 101.02 16.5002C101.02 18.2351 100.41 19.669 99.1902 20.8731C97.9706 22.0772 96.4948 22.6824 94.7595 22.6824ZM94.7595 12.6776C93.7864 12.6776 92.956 13.0466 92.2716 13.7878C91.5873 14.529 91.2434 15.4321 91.2434 16.5002C91.2434 17.5683 91.584 18.452 92.2652 19.1867C92.9463 19.9215 93.7767 20.2872 94.7627 20.2872C95.7488 20.2872 96.5791 19.9215 97.2603 19.1867C97.9414 18.452 98.2787 17.5554 98.2787 16.5002C98.2787 15.445 97.9349 14.529 97.2505 13.7878C96.5661 13.0466 95.7358 12.6776 94.7627 12.6776H94.7595ZM102.34 10.6287H110.922V22.3555H108.337V13.0239H105.171V22.3555H102.586V13.0239H101.461L102.34 10.6319V10.6287ZM114.406 22.3555V13.0239H111.98L112.807 10.6319H117.503L117.802 10.0979H120.176L119.102 13.0239H116.991V22.3555H114.406ZM122.427 22.3555H125.012V13.0239H127.124L128.197 10.0979H125.823L125.525 10.6319H120.828L120.001 13.0239H122.427V22.3555ZM134.72 22.6824C132.985 22.6824 131.509 22.0869 130.29 20.8925C129.07 19.6981 128.46 18.2351 128.46 16.5002C128.46 14.7653 129.07 13.3249 130.29 12.1079C131.509 10.8909 132.985 10.2824 134.72 10.2824C136.456 10.2824 137.931 10.8844 139.151 12.0917C140.371 13.299 140.98 14.7653 140.98 16.5002C140.98 18.2351 140.371 19.669 139.151 20.8731C137.931 22.0772 136.456 22.6824 134.72 22.6824ZM134.72 12.6776C133.747 12.6776 132.917 13.0466 132.232 13.7878C131.548 14.529 131.204 15.4321 131.204 16.5002C131.204 17.5683 131.545 18.452 132.223 19.1867C132.904 19.9215 133.734 20.2872 134.72 20.2872C135.706 20.2872 136.537 19.9215 137.218 19.1867C137.899 18.452 138.236 17.5554 138.236 16.5002C138.236 15.445 137.893 14.529 137.208 13.7878C136.524 13.0466 135.693 12.6776 134.72 12.6776ZM142.547 22.3555V13.0239H141.422L142.301 10.6319H146.576C147.594 10.6319 148.486 11.0106 149.248 11.7681C150.011 12.5255 150.39 13.4382 150.39 14.5064C150.39 15.7007 150.027 16.7171 149.3 17.5554C148.574 18.3937 147.682 18.8113 146.627 18.8113H145.132V22.3588H142.547V22.3555ZM145.132 13.0239V16.4161H145.907C146.387 16.4161 146.799 16.2542 147.14 15.9338C147.481 15.6133 147.649 15.2152 147.649 14.7459C147.649 14.2765 147.484 13.8558 147.156 13.5224C146.829 13.189 146.417 13.0239 145.924 13.0239H145.132ZM151.869 22.3555V13.0239H150.744L151.623 10.6319H156.335L156.653 10.0979H159.011L157.938 13.0239H154.454V22.3555H151.869Z" fill="#E52B0E"/>
<path fill-rule="evenodd" clip-rule="evenodd" d="M42.7773 28.142V31.9105H44.7618C45.488 31.9105 45.9933 31.465 45.9933 30.7984C45.9933 30.31 45.7022 29.9899 45.2604 29.8843C45.5884 29.7589 45.8193 29.4553 45.8193 29.089C45.8193 28.5281 45.3976 28.142 44.5543 28.142H42.7773ZM43.4433 28.6766H44.3937C44.7819 28.6766 45.1366 28.7228 45.1366 29.1946C45.1366 29.5741 44.8789 29.7127 44.3703 29.7127H43.4399V28.6766H43.4433ZM43.4433 30.1912H44.4539C44.8957 30.1912 45.3073 30.2638 45.3073 30.7852C45.3073 31.267 44.9258 31.3726 44.464 31.3726H43.4399V30.1912H43.4433ZM49.9689 30.4783H49.2862C49.2159 31.0327 48.9248 31.4419 48.2923 31.4419C47.4624 31.4419 47.1445 30.7291 47.1445 30.0295C47.1445 29.3299 47.4791 28.6205 48.299 28.6205C48.801 28.6205 49.1691 28.891 49.2628 29.3464H49.9421C49.8116 28.472 49.0888 28.0595 48.3124 28.0595C47.1311 28.0595 46.4585 28.9603 46.4585 30.0295C46.4585 31.2208 47.1813 32.0029 48.2789 32.0029C49.2528 32.0029 49.902 31.3957 49.9756 30.4783H49.9689ZM53.3823 28.1453H50.578V31.9138H53.4158V31.3462H51.2539V30.2341H53.2284V29.6995H51.2539V28.6997H53.3823V28.1453ZM52.8201 27.251H52.2144V27.8219H52.8201V27.251ZM51.7325 27.251H51.1201V27.8219H51.7325V27.251ZM59.0278 32.851V31.3429H58.5894V28.1453H56.0528V28.726C56.0528 29.7622 55.8386 30.8314 55.5441 31.3396H55.166V32.8477H55.8286V31.9105H58.3652V32.8477H59.0278V32.851ZM57.9067 31.3429H56.277C56.5179 30.871 56.7187 29.881 56.7187 28.9471V28.7194H57.9067V31.3429ZM62.5449 31.9138V28.1453H60.0016L59.9246 30.3298C59.8912 31.2868 59.677 31.4452 59.3992 31.4452C59.3457 31.4452 59.2118 31.4353 59.1315 31.4023V31.9105C59.2286 31.9435 59.3892 31.9798 59.5431 31.9798C60.102 31.9798 60.5437 31.5607 60.5872 30.508L60.6575 28.7128H61.8622V31.9105H62.5449V31.9138ZM66.2863 31.9138V28.1453H64.5126C63.6827 28.1453 63.2209 28.5644 63.2209 29.188C63.2209 29.6632 63.3748 30.0889 64.0642 30.2935L62.8662 31.9138H63.7195L64.8239 30.3595H65.6002V31.9138H66.2829H66.2863ZM65.6036 29.8546H64.5762C64.1378 29.8546 63.9103 29.6434 63.9103 29.2474C63.9103 28.8514 64.1245 28.6865 64.5896 28.6865H65.6069V29.8546H65.6036ZM71.9552 30.4783H71.2725C71.2022 31.0327 70.9111 31.4419 70.2786 31.4419C69.4487 31.4419 69.1308 30.7291 69.1308 30.0295C69.1308 29.3299 69.4654 28.6205 70.2853 28.6205C70.7873 28.6205 71.1554 28.891 71.2491 29.3464H71.9284C71.7979 28.472 71.0751 28.0595 70.2987 28.0595C69.1174 28.0595 68.4447 28.9603 68.4447 30.0295C68.4447 31.2208 69.1676 32.0029 70.2652 32.0029C71.239 32.0029 71.8883 31.3957 71.9619 30.4783H71.9552ZM75.2648 28.1453H72.0991V28.7161H73.3406V31.9138H74.0233V28.7161H75.2648V28.1453ZM75.7233 28.1453V31.9138H76.406V30.4651H77.507C78.2934 30.4651 78.7719 30.0097 78.7719 29.2969C78.7719 28.5083 78.2198 28.1486 77.4166 28.1486H75.7266L75.7233 28.1453ZM76.406 28.6964H77.2961C77.7278 28.6964 78.0993 28.825 78.0993 29.3101C78.0993 29.7556 77.7981 29.9305 77.3564 29.9305H76.406V28.6964ZM81.0375 28.0562C79.8461 28.0562 79.1568 28.924 79.1568 30.0295C79.1568 31.2043 79.9131 32.0029 81.0274 32.0029C82.1418 32.0029 82.8981 31.2043 82.8981 30.0295C82.8981 28.8547 82.1385 28.0562 81.0375 28.0562ZM81.0274 28.6106C81.7503 28.6106 82.2087 29.1616 82.2087 30.0229C82.2087 30.8842 81.7503 31.4452 81.0375 31.4452C80.3247 31.4452 79.8461 30.8941 79.8461 30.0163C79.8461 29.1385 80.3113 28.6073 81.0274 28.6073V28.6106ZM83.5038 31.9138H84.2969L85.9702 29.023V31.9138H86.6529V28.1453H85.8597L84.1865 31.036V28.1453H83.5038V31.9138ZM90.2603 28.1453H87.0946V28.7161H88.3361V31.9138H89.0188V28.7161H90.2603V28.1453ZM93.5098 28.1453H90.7054V31.9138H93.5432V31.3462H91.3814V30.2341H93.3558V29.6995H91.3814V28.6997H93.5098V28.1453ZM97.2009 31.9138V28.1453H94.6576L94.5806 30.3298C94.5472 31.2868 94.333 31.4452 94.0552 31.4452C94.0017 31.4452 93.8678 31.4353 93.7875 31.4023V31.9105C93.8846 31.9435 94.0452 31.9798 94.1991 31.9798C94.758 31.9798 95.1997 31.5607 95.2432 30.508L95.3135 28.7128H96.5182V31.9105H97.2009V31.9138ZM101.063 30.7456C101.063 30.0031 100.588 29.5873 99.7342 29.5873H98.6934V28.1486H98.0108V31.9171H99.7342C100.581 31.9171 101.063 31.4947 101.063 30.7489V30.7456ZM100.38 30.7621C100.38 31.168 100.156 31.3759 99.7074 31.3759H98.6968V30.1285H99.6974C100.126 30.1285 100.38 30.3661 100.38 30.7621ZM104.991 30.4816H104.309C104.239 31.036 103.947 31.4452 103.315 31.4452C102.485 31.4452 102.167 30.7324 102.167 30.0328C102.167 29.3332 102.502 28.6238 103.322 28.6238C103.824 28.6238 104.192 28.8943 104.285 29.3497H104.965C104.834 28.4753 104.111 28.0628 103.335 28.0628C102.154 28.0628 101.481 28.9636 101.481 30.0328C101.481 31.2241 102.204 32.0062 103.302 32.0062C104.275 32.0062 104.925 31.399 104.998 30.4816H104.991ZM108.301 28.1486H105.135V28.7194H106.377V31.9171H107.06V28.7194H108.301V28.1486ZM108.743 28.1486V31.9171H110.727C111.454 31.9171 111.959 31.4716 111.959 30.805C111.959 30.3166 111.668 29.9965 111.226 29.8909C111.554 29.7655 111.785 29.4619 111.785 29.0956C111.785 28.5347 111.363 28.1486 110.52 28.1486H108.743ZM109.409 28.6832H110.359C110.747 28.6832 111.102 28.7293 111.102 29.2012C111.102 29.5807 110.844 29.7193 110.336 29.7193H109.405V28.6832H109.409ZM109.409 30.1978H110.419C110.861 30.1978 111.273 30.2704 111.273 30.7918C111.273 31.2736 110.891 31.3792 110.429 31.3792H109.405V30.1978H109.409ZM114.375 28.1486H113.649L112.146 31.9171H112.852L113.234 30.9172H114.777L115.148 31.9171H115.881L114.378 28.1486H114.375ZM114.592 30.4189H113.405L114.01 28.8349L114.589 30.4189H114.592ZM117.755 31.9171H118.548L120.221 29.0263V31.9171H120.904V28.1486H120.111L118.438 31.0393V28.1486H117.755V31.9171ZM123.246 28.1486V31.9171H123.929V30.4684H125.03C125.817 30.4684 126.295 30.013 126.295 29.3002C126.295 28.5116 125.743 28.1519 124.94 28.1519H123.25L123.246 28.1486ZM123.929 28.6997H124.819C125.251 28.6997 125.622 28.8283 125.622 29.3134C125.622 29.7589 125.321 29.9338 124.88 29.9338H123.929V28.6997ZM129.682 28.1486H126.877V31.9171H129.715V31.3495H127.553V30.2374H129.528V29.7028H127.553V28.7029H129.682V28.1486ZM134.373 28.1486H133.423L132.372 31.0954L131.285 28.1486H130.328V31.9171H130.973V29.0131L132.084 31.9171H132.643L133.728 29.0131V31.9171H134.38V28.1486H134.373ZM136.867 28.0595C135.675 28.0595 134.986 28.9273 134.986 30.0328C134.986 31.2076 135.742 32.0062 136.857 32.0062C137.971 32.0062 138.727 31.2076 138.727 30.0328C138.727 28.858 137.968 28.0595 136.867 28.0595ZM136.857 28.6139C137.579 28.6139 138.038 29.1649 138.038 30.0262C138.038 30.8875 137.579 31.4485 136.867 31.4485C136.154 31.4485 135.675 30.8974 135.675 30.0196C135.675 29.1418 136.14 28.6106 136.857 28.6106V28.6139ZM142.485 28.1486H141.803V29.6467H140.019V28.1486H139.336V31.9171H140.019V30.2242H141.803V31.9171H142.485V28.1486ZM146.089 28.1486H142.924V28.7194H144.165V31.9171H144.848V28.7194H146.089V28.1486ZM147.813 28.1486L149.315 31.9171H148.583L148.211 30.9172H146.668L146.287 31.9171H145.581L147.083 28.1486H147.81H147.813ZM148.03 30.4189L147.451 28.8349L146.846 30.4189H148.034H148.03Z" fill="#2B2C86"/>
</g>
<defs>
<clipPath id="clip0_230_19763">
<rect width="159" height="40" fill="white" transform="translate(0 0.0507812)"/>
</clipPath>
</defs>
</svg>
