<svg width="215" height="54" viewBox="0 0 215 54" fill="none" xmlns="http://www.w3.org/2000/svg">
<g clip-path="url(#clip0_230_12314)">
<path fill-rule="evenodd" clip-rule="evenodd" d="M27.6218 10.4736C32.306 10.4736 36.5472 12.3351 39.6086 15.3458L33.3718 21.4065L28.2358 16.2678L16.1876 27.1482L19.8718 27.1394L19.9376 36.3856L25.5998 36.4642V32.6758C25.5998 31.8412 26.442 32.0203 28.2314 32.0422H28.2446H28.2577C30.0472 32.016 30.8893 31.8412 30.8893 32.6758V36.4642L36.442 36.3856L39.0604 39.1734C36.0516 41.8739 32.0384 43.5256 27.6306 43.5256C18.2928 43.5256 10.7227 36.1278 10.7227 26.9996C10.7227 17.8714 18.2841 10.4736 27.6218 10.4736ZM19.8367 21.7517L22.8323 19.2872L22.8674 17.9545H19.8323V21.7517H19.8367Z" fill="#2B2C86"/>
<path fill-rule="evenodd" clip-rule="evenodd" d="M27.6228 0C35.2763 0 42.2018 3.04127 47.2061 7.95711L43.4912 11.5708C39.4386 7.58569 33.8246 5.12122 27.6228 5.12122C15.2588 5.12122 5.23684 14.9179 5.23684 27C5.23684 39.0821 15.2588 48.8788 27.6228 48.8788C33.4605 48.8788 38.7719 46.694 42.7588 43.1196L46.3026 46.8906C41.386 51.3039 34.8289 54 27.6272 54C12.3684 54 0 41.9136 0 27C0 12.0864 12.3684 0 27.6228 0Z" fill="#E52B0E"/>
<path fill-rule="evenodd" clip-rule="evenodd" d="M57.211 30.5524C54.8645 30.5524 52.8689 29.7484 51.2198 28.136C49.5707 26.5236 48.7461 24.5485 48.7461 22.2064C48.7461 19.8642 49.5707 17.8848 51.2198 16.2549C52.8689 14.6294 54.8645 13.8123 57.211 13.8123C57.654 13.8123 58.0663 13.8341 58.4478 13.8822C58.8294 13.9303 59.2066 14.0133 59.5882 14.14L59.8952 13.6987L62.5356 15.2106L60.7505 18.6058C59.5926 17.5658 58.4128 17.0502 57.2066 17.0502C55.8733 17.0502 54.7505 17.5483 53.8294 18.5359C52.9084 19.5278 52.4522 20.7513 52.4522 22.2107C52.4522 23.6702 52.9128 24.8456 53.8294 25.8375C54.7505 26.8294 55.8733 27.3232 57.2066 27.3232C58.6189 27.3232 59.7593 26.8294 60.6321 25.8375L62.0356 29.1148C60.6408 30.0761 59.0312 30.5567 57.2066 30.5567L57.211 30.5524ZM66.1759 30.111V17.5134H62.8952L64.0136 14.2842H70.3645L70.768 13.5632H73.9785L72.5268 17.5134H69.6715V30.111H66.1759ZM75.2592 30.111H78.7549V25.3219H80.7768C82.2022 25.3219 83.4084 24.7582 84.3908 23.6265C85.3733 22.4948 85.8645 21.1227 85.8645 19.5103C85.8645 18.0683 85.3514 16.8361 84.3207 15.8136C83.29 14.7911 82.0838 14.2798 80.7066 14.2798H74.9259L73.7373 17.509H75.2592V30.1067V30.111ZM78.7549 17.5134H79.825C80.4917 17.5134 81.0443 17.7362 81.4917 18.1863C81.9347 18.6364 82.1584 19.1869 82.1584 19.838C82.1584 20.4891 81.9303 21.0091 81.4698 21.4417C81.0093 21.8743 80.4566 22.0927 79.8031 22.0927H78.7549V17.5134ZM95.404 30.5524C93.0575 30.5524 91.0619 29.7484 89.4128 28.136C87.7636 26.5236 86.9391 24.5485 86.9391 22.2064C86.9391 19.8642 87.7636 17.9197 89.4128 16.2768C91.0619 14.6338 93.0575 13.8123 95.404 13.8123C97.7505 13.8123 99.7461 14.625 101.395 16.2549C103.044 17.8848 103.869 19.8642 103.869 22.2064C103.869 24.5485 103.044 26.4842 101.395 28.1097C99.7461 29.7352 97.7505 30.5524 95.404 30.5524ZM95.404 17.0458C94.0882 17.0458 92.9654 17.544 92.04 18.5446C91.1145 19.5452 90.6496 20.7644 90.6496 22.2064C90.6496 23.6483 91.1101 24.8413 92.0312 25.8332C92.9522 26.8251 94.075 27.3188 95.4084 27.3188C96.7417 27.3188 97.8645 26.8251 98.7856 25.8332C99.7066 24.8413 100.167 23.6309 100.167 22.2064C100.167 20.7819 99.7022 19.5452 98.7768 18.5446C97.8514 17.544 96.7285 17.0458 95.4128 17.0458H95.404ZM114.145 14.2798H117.641V30.111H114.145V21.4635L109.483 30.111H105.987V17.5134H104.465L105.654 14.2842H109.483V23.1415L114.145 14.2842V14.2798ZM107.821 11.5619L109.106 10.2598C109.439 10.6487 109.838 10.9371 110.307 11.1337C110.777 11.326 111.255 11.4221 111.746 11.4221C112.807 11.4221 113.68 11.0332 114.36 10.2598L115.737 11.61L115.641 11.7717C114.549 12.934 113.246 13.5151 111.742 13.5151C110.965 13.5151 110.242 13.3578 109.579 13.0389C108.913 12.7199 108.325 12.2305 107.821 11.5619ZM128.132 30.5524C125.786 30.5524 123.79 29.7484 122.141 28.136C120.492 26.5236 119.667 24.5485 119.667 22.2064C119.667 19.8642 120.492 17.9197 122.141 16.2768C123.79 14.6338 125.786 13.8123 128.132 13.8123C130.479 13.8123 132.474 14.625 134.123 16.2549C135.772 17.8804 136.597 19.8642 136.597 22.2064C136.597 24.5485 135.772 26.4842 134.123 28.1097C132.474 29.7352 130.479 30.5524 128.132 30.5524ZM128.132 17.0458C126.816 17.0458 125.693 17.544 124.768 18.5446C123.843 19.5452 123.378 20.7644 123.378 22.2064C123.378 23.6483 123.838 24.8413 124.759 25.8332C125.68 26.8251 126.803 27.3188 128.136 27.3188C129.47 27.3188 130.593 26.8251 131.514 25.8332C132.435 24.8413 132.891 23.6309 132.891 22.2064C132.891 20.7819 132.426 19.5452 131.5 18.5446C130.575 17.544 129.452 17.0458 128.136 17.0458H128.132ZM138.382 14.2798H149.987V30.111H146.492V17.5134H142.211V30.111H138.715V17.5134H137.193L138.382 14.2842V14.2798ZM154.698 30.111V17.5134H151.417L152.536 14.2842H158.886L159.29 13.5632H162.5L161.049 17.5134H158.193V30.111H154.698ZM165.544 30.111H169.04V17.5134H171.895L173.347 13.5632H170.136L169.733 14.2842H163.382L162.264 17.5134H165.544V30.111ZM182.167 30.5524C179.821 30.5524 177.825 29.7484 176.176 28.136C174.527 26.5236 173.702 24.5485 173.702 22.2064C173.702 19.8642 174.527 17.9197 176.176 16.2768C177.825 14.6338 179.821 13.8123 182.167 13.8123C184.514 13.8123 186.509 14.625 188.158 16.2549C189.807 17.8848 190.632 19.8642 190.632 22.2064C190.632 24.5485 189.807 26.4842 188.158 28.1097C186.509 29.7352 184.514 30.5524 182.167 30.5524ZM182.167 17.0458C180.851 17.0458 179.729 17.544 178.803 18.5446C177.878 19.5452 177.413 20.7644 177.413 22.2064C177.413 23.6483 177.873 24.8413 178.79 25.8332C179.711 26.8251 180.834 27.3188 182.167 27.3188C183.5 27.3188 184.623 26.8251 185.544 25.8332C186.465 24.8413 186.922 23.6309 186.922 22.2064C186.922 20.7819 186.457 19.5452 185.531 18.5446C184.606 17.544 183.483 17.0458 182.167 17.0458ZM192.75 30.111V17.5134H191.229L192.417 14.2842H198.198C199.575 14.2842 200.781 14.7955 201.812 15.8179C202.843 16.8404 203.356 18.0727 203.356 19.5147C203.356 21.1271 202.865 22.4991 201.882 23.6309C200.9 24.7626 199.693 25.3263 198.268 25.3263H196.246V30.1154H192.75V30.111ZM196.246 17.5134V22.0927H197.294C197.943 22.0927 198.5 21.8743 198.961 21.4417C199.422 21.0091 199.65 20.4716 199.65 19.838C199.65 19.2044 199.426 18.6364 198.983 18.1863C198.54 17.7362 197.983 17.5134 197.316 17.5134H196.246ZM205.356 30.111V17.5134H203.834L205.022 14.2842H211.395L211.825 13.5632H215.014L213.562 17.5134H208.851V30.111H205.356Z" fill="#E52B0E"/>
<path fill-rule="evenodd" clip-rule="evenodd" d="M57.8438 37.9226V43.0101H60.5271C61.5091 43.0101 62.1924 42.4087 62.1924 41.5088C62.1924 40.8494 61.7987 40.4173 61.2014 40.2748C61.6448 40.1055 61.9571 39.6956 61.9571 39.2011C61.9571 38.4438 61.3869 37.9226 60.2466 37.9226H57.8438ZM58.7442 38.6443H60.0294C60.5543 38.6443 61.0339 38.7066 61.0339 39.3437C61.0339 39.856 60.6855 40.0431 59.9977 40.0431H58.7397V38.6443H58.7442ZM58.7442 40.6891H60.1108C60.7081 40.6891 61.2647 40.7871 61.2647 41.4909C61.2647 42.1414 60.7489 42.2839 60.1244 42.2839H58.7397V40.6891H58.7442ZM67.5682 41.0766H66.6451C66.55 41.8251 66.1564 42.3775 65.3011 42.3775C64.1789 42.3775 63.749 41.4152 63.749 40.4708C63.749 39.5263 64.2015 38.5685 65.3102 38.5685C65.9889 38.5685 66.4867 38.9338 66.6134 39.5486H67.532C67.3555 38.368 66.3781 37.8112 65.3283 37.8112C63.7309 37.8112 62.8214 39.0274 62.8214 40.4708C62.8214 42.079 63.7988 43.1348 65.283 43.1348C66.5998 43.1348 67.4777 42.3151 67.5772 41.0766H67.5682ZM72.1838 37.927H68.3918V43.0145H72.229V42.2483H69.3058V40.747H71.9756V40.0253H69.3058V38.6754H72.1838V37.927ZM71.4236 36.7197H70.6045V37.4904H71.4236V36.7197ZM69.9529 36.7197H69.1248V37.4904H69.9529V36.7197ZM79.8176 44.2797V42.2438H79.2248V37.927H75.7948V38.7111C75.7948 40.1099 75.5052 41.5533 75.107 42.2394H74.5957V44.2753H75.4916V43.0101H78.9216V44.2753H79.8176V44.2797ZM78.3017 42.2438H76.098C76.4238 41.6068 76.6953 40.2703 76.6953 39.0096V38.7022H78.3017V42.2438ZM84.5735 43.0145V37.927H81.1344L81.0303 40.8762C80.9851 42.1681 80.6955 42.3819 80.3199 42.3819C80.2475 42.3819 80.0665 42.3686 79.9579 42.324V43.0101C80.0891 43.0546 80.3063 43.1036 80.5145 43.1036C81.2702 43.1036 81.8675 42.5379 81.9263 41.1167L82.0213 38.6933H83.6504V43.0101H84.5735V43.0145ZM89.6325 43.0145V37.927H87.2342C86.112 37.927 85.4876 38.4928 85.4876 39.3348C85.4876 39.9763 85.6957 40.551 86.6279 40.8272L85.0079 43.0145H86.1618L87.6551 40.9163H88.7049V43.0145H89.628H89.6325ZM88.7094 40.2347H87.3202C86.7274 40.2347 86.4197 39.9495 86.4197 39.415C86.4197 38.8804 86.7093 38.6576 87.3383 38.6576H88.7139V40.2347H88.7094ZM97.2981 41.0766H96.3749C96.2799 41.8251 95.8862 42.3775 95.031 42.3775C93.9088 42.3775 93.4789 41.4152 93.4789 40.4708C93.4789 39.5263 93.9314 38.5685 95.04 38.5685C95.7188 38.5685 96.2166 38.9338 96.3433 39.5486H97.2619C97.0854 38.368 96.108 37.8112 95.0581 37.8112C93.4608 37.8112 92.5512 39.0274 92.5512 40.4708C92.5512 42.079 93.5286 43.1348 95.0129 43.1348C96.3297 43.1348 97.2076 42.3151 97.3071 41.0766H97.2981ZM101.773 37.927H97.4926V38.6977H99.1714V43.0145H100.095V38.6977H101.773V37.927ZM102.393 37.927V43.0145H103.316V41.0588H104.805C105.869 41.0588 106.516 40.444 106.516 39.4818C106.516 38.4171 105.769 37.9315 104.683 37.9315H102.398L102.393 37.927ZM103.316 38.671H104.52C105.104 38.671 105.606 38.8447 105.606 39.4996C105.606 40.101 105.199 40.3371 104.602 40.3371H103.316V38.671ZM109.579 37.8067C107.968 37.8067 107.036 38.9784 107.036 40.4708C107.036 42.0567 108.059 43.1348 109.566 43.1348C111.072 43.1348 112.095 42.0567 112.095 40.4708C112.095 38.8848 111.068 37.8067 109.579 37.8067ZM109.566 38.5552C110.543 38.5552 111.163 39.2991 111.163 40.4619C111.163 41.6246 110.543 42.3819 109.579 42.3819C108.615 42.3819 107.968 41.638 107.968 40.453C107.968 39.2679 108.597 38.5507 109.566 38.5507V38.5552ZM112.914 43.0145H113.987L116.249 39.112V43.0145H117.172V37.927H116.1L113.837 41.8295V37.927H112.914V43.0145ZM122.05 37.927H117.77V38.6977H119.448V43.0145H120.372V38.6977H122.05V37.927ZM126.444 37.927H122.652V43.0145H126.489V42.2483H123.566V40.747H126.236V40.0253H123.566V38.6754H126.444V37.927ZM131.435 43.0145V37.927H127.996L127.892 40.8762C127.847 42.1681 127.557 42.3819 127.182 42.3819C127.109 42.3819 126.928 42.3686 126.82 42.324V43.0101C126.951 43.0546 127.168 43.1036 127.376 43.1036C128.132 43.1036 128.729 42.5379 128.788 41.1167L128.883 38.6933H130.512V43.0101H131.435V43.0145ZM136.657 41.4375C136.657 40.4351 136.015 39.8738 134.861 39.8738H133.454V37.9315H132.53V43.019H134.861C136.006 43.019 136.657 42.4488 136.657 41.4419V41.4375ZM135.734 41.4598C135.734 42.0077 135.431 42.2884 134.825 42.2884H133.458V40.6044H134.811C135.39 40.6044 135.734 40.9252 135.734 41.4598ZM141.97 41.0811H141.047C140.952 41.8295 140.558 42.3819 139.703 42.3819C138.58 42.3819 138.151 41.4197 138.151 40.4752C138.151 39.5308 138.603 38.573 139.712 38.573C140.391 38.573 140.888 38.9383 141.015 39.5531H141.934C141.757 38.3725 140.78 37.8156 139.73 37.8156C138.133 37.8156 137.223 39.0318 137.223 40.4752C137.223 42.0834 138.2 43.1393 139.685 43.1393C141.001 43.1393 141.879 42.3196 141.979 41.0811H141.97ZM146.445 37.9315H142.164V38.7022H143.843V43.019H144.766V38.7022H146.445V37.9315ZM147.042 37.9315V43.019H149.726C150.708 43.019 151.391 42.4176 151.391 41.5177C151.391 40.8583 150.997 40.4262 150.4 40.2837C150.843 40.1144 151.156 39.7045 151.156 39.21C151.156 38.4527 150.586 37.9315 149.445 37.9315H147.042ZM147.943 38.6532H149.228C149.753 38.6532 150.233 38.7155 150.233 39.3526C150.233 39.8649 149.884 40.052 149.196 40.052H147.938V38.6532H147.943ZM147.943 40.698H149.31C149.907 40.698 150.463 40.796 150.463 41.4999C150.463 42.1503 149.948 42.2928 149.323 42.2928H147.938V40.698H147.943ZM154.658 37.9315H153.676L151.644 43.019H152.599L153.115 41.6691H155.201L155.703 43.019H156.694L154.663 37.9315H154.658ZM154.952 40.9965H153.346L154.165 38.8581L154.948 40.9965H154.952ZM159.229 43.019H160.301L162.563 39.1165V43.019H163.487V37.9315H162.414L160.152 41.834V37.9315H159.229V43.019ZM166.654 37.9315V43.019H167.577V41.0633H169.066C170.129 41.0633 170.777 40.4485 170.777 39.4862C170.777 38.4215 170.03 37.9359 168.944 37.9359H166.659L166.654 37.9315ZM167.577 38.6754H168.781C169.365 38.6754 169.867 38.8492 169.867 39.5041C169.867 40.1055 169.46 40.3416 168.862 40.3416H167.577V38.6754ZM175.356 37.9315H171.564V43.019H175.401V42.2527H172.478V40.7514H175.148V40.0297H172.478V38.6799H175.356V37.9315ZM181.7 37.9315H180.415L178.994 41.9097L177.523 37.9315H176.229V43.019H177.103V39.0987L178.605 43.019H179.361L180.827 39.0987V43.019H181.709V37.9315H181.7ZM185.071 37.8112C183.46 37.8112 182.528 38.9828 182.528 40.4752C182.528 42.0612 183.551 43.1393 185.058 43.1393C186.565 43.1393 187.587 42.0612 187.587 40.4752C187.587 38.8893 186.56 37.8112 185.071 37.8112ZM185.058 38.5596C186.035 38.5596 186.655 39.3036 186.655 40.4663C186.655 41.629 186.035 42.3864 185.071 42.3864C184.107 42.3864 183.46 41.6424 183.46 40.4574C183.46 39.2724 184.089 38.5552 185.058 38.5552V38.5596ZM192.669 37.9315H191.746V39.954H189.334V37.9315H188.411V43.019H189.334V40.7336H191.746V43.019H192.669V37.9315ZM197.542 37.9315H193.262V38.7022H194.941V43.019H195.864V38.7022H197.542V37.9315ZM199.873 37.9315L201.905 43.019H200.914L200.411 41.6691H198.325L197.809 43.019H196.855L198.886 37.9315H199.868H199.873ZM200.167 40.9965L199.384 38.8581L198.565 40.9965H200.172H200.167Z" fill="#2B2C86"/>
</g>
<defs>
<clipPath id="clip0_230_12314">
<rect width="215" height="54" fill="white"/>
</clipPath>
</defs>
</svg>
