<svg width="24" height="20" viewBox="0 0 24 20" fill="none" xmlns="http://www.w3.org/2000/svg">
<path d="M0.5 1.75977H3.1407C3.98715 1.75977 4.74194 2.29262 5.0253 3.09024L5.60526 4.72273M5.60526 4.72273L8.56647 13.058C8.91539 14.0401 9.96005 14.5896 10.967 14.3208L21.016 11.6375C21.8912 11.4038 22.5 10.6111 22.5 9.70521V6.72273C22.5 5.61816 21.6046 4.72273 20.5 4.72273H5.60526Z" stroke="white" stroke-width="1.3"/>
<path d="M5.41794 17.2412C5.41794 18.1249 6.13428 18.8412 7.01794 18.8412C7.9016 18.8412 8.61794 18.1249 8.61794 17.2412C8.61794 16.3576 7.9016 15.6412 7.01794 15.6412C6.13428 15.6412 5.41794 16.3576 5.41794 17.2412ZM6.20312 17.5412H7.01794V16.9412H6.20312V17.5412Z" fill="white"/>
<path d="M16.0117 17.2412C16.0117 18.1249 16.728 18.8412 17.6117 18.8412C18.4953 18.8412 19.2117 18.1249 19.2117 17.2412C19.2117 16.3576 18.4953 15.6412 17.6117 15.6412C16.728 15.6412 16.0117 16.3576 16.0117 17.2412ZM16.7969 17.5412H17.6117V16.9412H16.7969V17.5412Z" fill="white"/>
</svg>
