<svg width="52" height="52" viewBox="0 0 52 52" fill="none" xmlns="http://www.w3.org/2000/svg">
<path d="M3 21.5H48.9375M13.2083 34H13.2339M23.4167 34H28.5208M3 16.5C3 14.5109 3.80664 12.6032 5.24246 11.1967C6.67829 9.79018 8.62569 9 10.6562 9H41.2812C43.3118 9 45.2592 9.79018 46.695 11.1967C48.1309 12.6032 48.9375 14.5109 48.9375 16.5V36.5C48.9375 38.4891 48.1309 40.3968 46.695 41.8033C45.2592 43.2098 43.3118 44 41.2812 44H10.6562C8.62569 44 6.67829 43.2098 5.24246 41.8033C3.80664 40.3968 3 38.4891 3 36.5V16.5Z" stroke="#117FE3" stroke-width="2.4" stroke-linecap="round" stroke-linejoin="round"/>
</svg>
