<svg width="53" height="52" viewBox="0 0 53 52" fill="none" xmlns="http://www.w3.org/2000/svg">
<path d="M28.209 11.1875H45.709M28.209 19.9375H39.1465M28.209 33.0625H45.709M28.209 41.8125H39.1465M6.33398 11.1875C6.33398 10.6073 6.56445 10.0509 6.97469 9.6407C7.38492 9.23047 7.94132 9 8.52148 9H17.2715C17.8516 9 18.408 9.23047 18.8183 9.6407C19.2285 10.0509 19.459 10.6073 19.459 11.1875V19.9375C19.459 20.5177 19.2285 21.0741 18.8183 21.4843C18.408 21.8945 17.8516 22.125 17.2715 22.125H8.52148C7.94132 22.125 7.38492 21.8945 6.97469 21.4843C6.56445 21.0741 6.33398 20.5177 6.33398 19.9375V11.1875ZM6.33398 33.0625C6.33398 32.4823 6.56445 31.9259 6.97469 31.5157C7.38492 31.1055 7.94132 30.875 8.52148 30.875H17.2715C17.8516 30.875 18.408 31.1055 18.8183 31.5157C19.2285 31.9259 19.459 32.4823 19.459 33.0625V41.8125C19.459 42.3927 19.2285 42.9491 18.8183 43.3593C18.408 43.7695 17.8516 44 17.2715 44H8.52148C7.94132 44 7.38492 43.7695 6.97469 43.3593C6.56445 42.9491 6.33398 42.3927 6.33398 41.8125V33.0625Z" stroke="#117FE3" stroke-width="2.4" stroke-linecap="round" stroke-linejoin="round"/>
</svg>
