<svg width="52" height="52" viewBox="0 0 52 52" fill="none" xmlns="http://www.w3.org/2000/svg">
<path d="M20.6667 32.3333L32.3333 20.6667M22.6111 21.6389C22.6111 22.1758 22.1758 22.6111 21.6389 22.6111C21.1019 22.6111 20.6667 22.1758 20.6667 21.6389C20.6667 21.1019 21.1019 20.6667 21.6389 20.6667C22.1758 20.6667 22.6111 21.1019 22.6111 21.6389ZM32.3333 31.3611C32.3333 31.8981 31.8981 32.3333 31.3611 32.3333C30.8242 32.3333 30.3889 31.8981 30.3889 31.3611C30.3889 30.8242 30.8242 30.3889 31.3611 30.3889C31.8981 30.3889 32.3333 30.8242 32.3333 31.3611ZM9 26.5C9 28.7981 9.45265 31.0738 10.3321 33.197C11.2116 35.3202 12.5006 37.2493 14.1256 38.8744C15.7507 40.4994 17.6798 41.7884 19.803 42.6679C21.9262 43.5474 24.2019 44 26.5 44C28.7981 44 31.0738 43.5474 33.197 42.6679C35.3202 41.7884 37.2493 40.4994 38.8744 38.8744C40.4994 37.2493 41.7884 35.3202 42.6679 33.197C43.5474 31.0738 44 28.7981 44 26.5C44 24.2019 43.5474 21.9262 42.6679 19.803C41.7884 17.6798 40.4994 15.7507 38.8744 14.1256C37.2493 12.5006 35.3202 11.2116 33.197 10.3321C31.0738 9.45265 28.7981 9 26.5 9C24.2019 9 21.9262 9.45265 19.803 10.3321C17.6798 11.2116 15.7507 12.5006 14.1256 14.1256C12.5006 15.7507 11.2116 17.6798 10.3321 19.803C9.45265 21.9262 9 24.2019 9 26.5Z" stroke="#117FE3" stroke-width="2.4" stroke-linecap="round" stroke-linejoin="round"/>
</svg>
