<svg width="104" height="77" viewBox="0 0 104 77" fill="none" xmlns="http://www.w3.org/2000/svg">
<path d="M2.97461 2H19.625C20.4715 2 21.2262 2.53286 21.5096 3.33047L25.7285 15.2057M25.7285 15.2057L41.0619 58.3664C41.4108 59.3486 42.4554 59.8981 43.4624 59.6292L99.5432 44.6546C100.418 44.4209 101.027 43.6282 101.027 42.7223V17.2057C101.027 16.1012 100.132 15.2057 99.0272 15.2057H25.7285Z" stroke="#186FD4" stroke-width="4" stroke-linecap="round" stroke-linejoin="round"/>
<path d="M55.7292 41.899L55.7301 41.898C57.1795 40.2882 59.1454 39.3838 61.1952 39.3838C63.2449 39.3838 65.2108 40.2882 66.6602 41.898L66.661 41.899M49.002 31C50.0055 32.0732 51.367 32.6768 52.786 32.6768C54.2051 32.6768 55.5661 32.0738 56.5697 31.0006M65.8201 31C66.8236 32.0732 68.1851 32.6768 69.6043 32.6768C71.0233 32.6768 72.3843 32.0738 73.3878 31.0006" stroke="#186FD4" stroke-width="4" stroke-linecap="round" stroke-linejoin="round"/>
<path d="M26.6947 71C26.6947 73.9455 29.0825 76.3333 32.0281 76.3333C34.9736 76.3333 37.3614 73.9455 37.3614 71C37.3614 68.0545 34.9736 65.6667 32.0281 65.6667C29.0825 65.6667 26.6947 68.0545 26.6947 71ZM28.3965 72H32.0281V70H28.3965V72Z" fill="#186FD4"/>
<path d="M69.9057 71C69.9057 73.9455 72.2935 76.3333 75.239 76.3333C78.1845 76.3333 80.5723 73.9455 80.5723 71C80.5723 68.0545 78.1845 65.6667 75.239 65.6667C72.2935 65.6667 69.9057 68.0545 69.9057 71ZM71.6074 72H75.239V70H71.6074V72Z" fill="#186FD4"/>
</svg>
